<svg id="Capa_1" data-name="Capa 1" xmlns="http://www.w3.org/2000/svg" xmlns:xlink="http://www.w3.org/1999/xlink" viewBox="0 0 1496.18 260.21"><defs><style>.cls-1{fill:#fff;}.cls-2{fill:url(#Degradado_sin_nombre_7);}</style><linearGradient id="Degradado_sin_nombre_7" x1="150.18" y1="330.41" x2="150.18" y2="70.21" gradientUnits="userSpaceOnUse"><stop offset="0" stop-color="#c03"/><stop offset="0.5" stop-color="#790094"/><stop offset="1" stop-color="#00edff"/></linearGradient></defs><title>Chronalc_Logo_SVG</title><path class="cls-1" d="M456.61,233.68c-11.2,11.2-28.8,21.76-51.52,21.76-34.4,0-57.12-24.8-57.12-55.52,0-30.24,22.88-55.36,56.32-55.36,19,0,37.28,7.52,49,18.4l-12.16,12c-9.28-8.8-23.68-14.4-36.48-14.4-22.88,0-37.76,17.92-37.76,39.52,0,21.76,15.2,39.36,38.56,39.36,16.32,0,30.24-8,39.2-17.6Z" transform="translate(-50.67 -70.21)"/><path class="cls-1" d="M512.61,252.24V147.76h17.92v39.52h56.8V147.76h17.92V252.24H587.33v-49h-56.8v49Z" transform="translate(-50.67 -70.21)"/><path class="cls-1" d="M673.41,252.24V147.76H731c13.92,0,23.52,3.84,30.24,11a30.35,30.35,0,0,1,8.32,21c0,14.08-9.28,24.8-23,29.92l25,42.56H750.85l-22.4-40.16H691.33v40.16Zm17.92-88.48v32.32h42.88c9.44,0,17.44-7.36,17.44-16.32a14.92,14.92,0,0,0-4.32-10.4c-5-5.12-10.72-5.6-16.32-5.6Z" transform="translate(-50.67 -70.21)"/><path class="cls-1" d="M880.13,144.56c33,0,59.2,24.64,59.2,55.2,0,31-26.24,55.68-59.2,55.68s-58.72-24.64-58.72-55.68C821.41,169.2,847.17,144.56,880.13,144.56Zm0,94.88a39.92,39.92,0,0,0,40.32-39.68c0-21.6-17.76-39.2-40.32-39.2-22.4,0-39.84,17.6-39.84,39.2A39.61,39.61,0,0,0,880.13,239.44Z" transform="translate(-50.67 -70.21)"/><path class="cls-1" d="M1092.29,147.76V252.24h-15.84l-60.32-72.48H1016v72.48H998.05V147.76h15.84l60.32,72.48h.16V147.76Z" transform="translate(-50.67 -70.21)"/><path class="cls-1" d="M1194.68,147.76H1211l48.49,104.48h-19.68l-12.64-28.16H1177.4l-12.48,28.16H1146.2Zm-10.88,61.92h37l-17.93-40.48h-1Z" transform="translate(-50.67 -70.21)"/><path class="cls-1" d="M1331.32,147.76v88.48h64.16v16H1313.4V147.76Z" transform="translate(-50.67 -70.21)"/><path class="cls-1" d="M1546.85,233.68c-11.2,11.2-28.81,21.76-51.53,21.76-34.4,0-57.12-24.8-57.12-55.52,0-30.24,22.88-55.36,56.32-55.36,19,0,37.28,7.52,49,18.4l-12.16,12c-9.29-8.8-23.69-14.4-36.49-14.4-22.88,0-37.76,17.92-37.76,39.52,0,21.76,15.2,39.36,38.56,39.36,16.32,0,30.24-8,39.21-17.6Z" transform="translate(-50.67 -70.21)"/><path class="cls-2" d="M54.92,330c-2.2-.9-4.25-4.65-4.25-7.7,0-2.3,1.55-5,6.75-11.76,3.8-5,35.68-46.79,63.51-83.33,4.15-5.45,11.26-14.81,15.81-20.76,29-38,91.18-119.71,91.23-120s-156.34-.4-156.59-.1c0,.05,4.91,7.11,11,15.61,41,57.15,40.54,56.5,41,58.81,1.2,6.1-3.9,11.41-8.51,8.85-1.4-.8-.1.95-22.17-29.87-10.56-14.72-24-33.53-29.92-41.74S51.72,82.33,51.37,81.43a8,8,0,0,1,.45-7.21c2.2-4.4-7.51-4,98.33-4,101.19,0,96-.15,97.89,2.55a10.92,10.92,0,0,1,1.55,7.1c-.4,2.26.45,1.11-42.44,57.41-30.52,40.08-35.08,46-46.14,60.55-45.94,60.25-88.83,116.65-88.83,116.85s35.14.25,78.07.25c52.15,0,78.07-.2,78.07-.5a28.23,28.23,0,0,0-3.15-4.65c-3.55-4.61-22.32-29.18-32.13-42.14-3.6-4.65-12.86-16.81-20.62-27-9.61-12.56-14.36-19.17-14.71-20.52-1.85-6.81,4.25-13,9-9A103.69,103.69,0,0,1,174,220c10.21,13.41,31.53,41.38,52.3,68.56,22.22,29.17,22.42,29.42,23.07,31.78.95,3.6-.35,7.45-3.15,9.1-1.55,1-3.21,1-95.94,1C98.36,330.4,55.47,330.2,54.92,330Z" transform="translate(-50.67 -70.21)"/></svg>